PathFileType	4	(X/Y/Z)	C:\Users\WrightLab\Desktop\Jo\P5V116.trc
DataRate	CameraRate	NumFrames	NumMarkers	Units	OrigDataRate	OrigDataStartFrame	OrigNumFrames
100.00	100.00	       15	19	mm	100.00	62	       492
Frame#	Time	Headset_Front			Headset_Back			Headset_Left			Headset_Right			Left_Shoulder			Right_Shoulder			Sternum			C7			Left Elbow			Right Elbow			Left Wrist			Right Wrist			Left ASIS			Right ASIS			S2			Left Knee			Right Knee			Left Ankle			Right Ankle			
		X1	Y1	Z1	X2	Y2	Z2	X3	Y3	Z3	X4	Y4	Z4	X5	Y5	Z5	X6	Y6	Z6	X7	Y7	Z7	X8	Y8	Z8	X9	Y9	Z9	X10	Y10	Z10	X11	Y11	Z11	X12	Y12	Z12	X13	Y13	Z13	X14	Y14	Z14	X15	Y15	Z15	X16	Y16	Z16	X17	Y17	Z17	X18	Y18	Z18	X19	Y19	Z19	

62	0.610	-361.99103	1617.73096	-635.32532	-655.55896	933.28058	-754.14667							-266.41516	1459.13879	-736.36047	-679.05798	1447.41907	-790.20380	-509.54849	1298.63721	-684.40692	-466.01443	1505.13293	-879.30914	-181.41948	1196.24902	-812.50616	-765.61639	1191.26721	-889.88507	-242.66890	1121.67883	-616.90674	-719.02753	1051.61108	-697.63690	-391.27090	901.06738	-684.42542				-408.22012	959.18793	-951.79535	-408.51218	506.67371	-585.53394	-633.89856	477.15091	-851.65710	-327.43762	196.13536	-864.24219				
63	0.620	-363.80893	1617.90930	-629.27478	-655.57184	932.58081	-748.27771							-268.40591	1461.05005	-729.92145	-682.38550	1447.98279	-784.48260	-512.55548	1298.70215	-678.58527	-468.78024	1505.14124	-873.14178	-185.24716	1196.97461	-807.08545	-768.90271	1191.36719	-882.18701	-243.74837	1121.63940	-611.80383	-722.47180	1052.47729	-691.57434	-394.44876	900.98303	-678.44647				-411.51953	959.65247	-947.43628	-411.63577	509.87680	-578.18573	-636.91144	478.17801	-849.12158	-340.09222	189.46591	-845.85706				
64	0.630	-365.49121	1617.39856	-624.17859	-658.46075	932.22614	-741.81378							-273.55786	1458.40759	-724.49109	-684.83136	1448.32288	-778.12140	-515.15131	1298.48254	-672.20142	-471.33255	1505.57764	-867.25842	-189.21230	1196.84570	-803.56506	-772.65656	1192.07495	-874.87775	-246.67433	1121.61426	-608.00104	-724.84509	1051.65662	-685.11963	-397.40128	901.05798	-673.77118				-414.77490	959.49884	-941.95935	-416.29120	512.03229	-572.27271	-637.31390	476.78223	-846.19867	-350.29547	183.21684	-827.51117				
65	0.640	-367.24496	1617.65369	-618.01361	-659.64948	932.98737	-735.46539							-273.24442	1460.90430	-717.97894				-517.11627	1298.51404	-666.47064	-473.83682	1505.76770	-860.49994	-192.94633	1197.40149	-799.16461	-775.89789	1192.41809	-867.47992	-248.64650	1121.82739	-603.58911	-726.68048	1052.64172	-678.45514	-399.47348	901.82349	-668.88092				-418.41113	960.41168	-935.24023	-420.65512	514.29816	-565.50366	-640.93970	477.59122	-842.24969	-362.58356	176.41159	-806.04852				
66	0.650	-368.71460	1617.37427	-611.96442	-661.50403	933.03491	-729.32495							-277.96484	1458.45337	-712.35254	-690.28418	1449.37341	-764.72101	-519.84973	1299.41553	-660.41510	-476.31580	1506.02100	-854.36676	-196.02205	1196.41064	-794.31805	-778.52844	1193.08752	-860.34033	-250.17415	1121.20337	-598.90344	-730.38666	1052.93555	-670.60345	-402.51709	901.86230	-663.66223				-421.83759	960.17657	-929.86676	-426.02927	517.04663	-559.08026	-642.89777	477.67700	-838.94550	-374.03809	169.15479	-784.87506				
67	0.660	-370.30542	1617.68506	-606.56500	-663.00433	933.46210	-722.59528							-280.18387	1458.27173	-706.71552	-691.79993	1449.15344	-758.25629	-521.34882	1299.24609	-653.59686	-478.77560	1506.11926	-847.34705	-199.48787	1196.43176	-790.55048	-781.02460	1193.42944	-853.26215	-253.83310	1120.51648	-594.52472	-733.80914	1053.64148	-664.47662	-405.83389	902.38269	-657.27325				-425.48026	960.60895	-925.63074	-431.75641	519.61060	-552.89410	-645.15405	479.45776	-835.95001	-385.49402	161.58746	-764.20441				
68	0.670	-371.81418	1617.79834	-600.82990	-664.57465	933.97742	-716.14105							-280.79865	1458.32043	-701.21588	-694.73724	1450.06262	-751.71368	-523.75470	1298.64978	-646.35956	-481.27661	1506.34656	-840.95502	-201.81828	1196.56433	-785.73547	-784.12152	1194.49963	-846.45465	-255.75313	1119.75110	-589.97650	-735.81702	1053.34021	-657.41699	-408.05441	902.17773	-652.31354				-429.25125	961.41400	-920.96948	-437.02066	522.54211	-545.81854	-646.74268	479.08954	-832.46729	-396.18417	154.64212	-741.87689				
69	0.680	-373.18329	1617.79163	-595.95319	-665.29224	932.72687	-709.22760							-284.79517	1457.45825	-694.82391	-696.80768	1449.78870	-744.15619	-526.52197	1299.00403	-640.29364	-483.71133	1506.43237	-833.91083	-205.48381	1195.74988	-779.61108	-786.75610	1194.62036	-839.33514	-257.47852	1119.65747	-584.33374	-738.11804	1053.40283	-651.00525	-410.52420	902.31793	-647.41223				-432.85684	961.29822	-913.63190	-443.31158	525.88965	-540.64038	-648.84052	478.63666	-828.45917	-409.01575	146.90350	-719.30389				
70	0.690	-374.44672	1617.35815	-588.91217	-667.71985	933.82330	-702.18298							-286.93143	1456.97278	-687.20428	-698.82404	1450.25146	-736.89520	-528.16809	1299.16748	-633.13757	-486.21844	1506.35181	-827.39948	-209.02119	1195.16321	-774.85754	-789.07892	1194.81238	-832.38116	-260.90356	1118.59521	-578.55859	-740.96686	1054.09216	-644.08899	-412.57227	902.24646	-642.06049				-436.31927	961.10406	-908.24176	-448.03223	527.56592	-533.83527	-651.55737	478.05566	-824.92230	-418.65262	140.00333	-696.88849				
71	0.700	-375.54962	1616.67590	-583.56891	-669.44745	933.67859	-695.85425							-289.27954	1456.70068	-681.81543	-702.10352	1450.75317	-729.73108	-530.37842	1298.66565	-626.05176	-488.62915	1506.38501	-820.60394	-211.47221	1193.89880	-769.41681	-791.70911	1195.38672	-825.98547	-261.45291	1118.62292	-573.64984	-743.65497	1054.65161	-637.00165	-414.81525	901.87036	-634.76013				-439.96359	961.87714	-903.55701	-452.85568	529.55676	-526.96735	-654.82928	479.16452	-820.46155	-430.87811	132.33572	-673.06317				
72	0.710	-376.84268	1616.89050	-577.61066	-672.11115	933.58661	-688.74231							-291.86401	1455.74390	-675.63562	-703.87091	1450.49219	-722.16162	-533.71857	1299.18237	-619.82074	-491.11533	1506.11987	-813.32898	-213.87306	1193.81384	-761.58905	-793.98389	1195.51599	-818.48779	-264.51715	1116.99255	-567.93616	-745.38116	1053.96631	-628.97180	-417.06375	902.10358	-629.15894				-443.29922	961.77313	-896.13818	-457.10281	530.63763	-521.31104	-657.29236	479.67673	-816.61670	-441.83923	126.20509	-650.52954				
73	0.720	-377.91248	1616.57959	-571.73242	-675.23901	933.78741	-682.10925							-293.74310	1455.12439	-670.04938	-706.04871	1450.83716	-714.86963	-535.60742	1298.91089	-611.89771	-493.58038	1505.99536	-806.49982	-218.56322	1193.50146	-758.08337	-795.95325	1195.76392	-811.22217	-267.46594	1116.34338	-560.90594	-747.64075	1054.55469	-621.70422	-419.16983	901.00800	-623.20764				-446.36023	961.53705	-890.65216	-460.01569	531.91125	-514.50751	-659.33234	478.12299	-812.47473	-451.33096	119.26640	-625.93280				
74	0.730	-378.91660	1615.85596	-564.74634	-677.54102	933.04755	-674.97211							-293.26929	1456.89539	-661.69763	-708.40009	1450.99011	-707.40802	-537.69629	1298.58325	-605.04175	-495.95969	1505.66418	-799.05792	-221.12915	1192.78186	-752.91675	-798.30457	1196.02100	-804.49030	-269.40167	1115.98743	-555.89838	-750.88464	1054.76501	-615.10284	-421.11487	901.07758	-616.82672				-449.17255	961.54071	-883.87146	-462.84525	531.75555	-507.93530	-661.07892	476.67383	-808.00244	-463.73254	114.03957	-601.62061				
75	0.740	-379.86465	1615.01855	-558.21130	-680.66443	932.74707	-667.54352							-297.61621	1453.82898	-655.88013	-711.03265	1450.68103	-699.44415	-540.20520	1297.83838	-596.96899	-498.47308	1505.46924	-792.34772	-224.47095	1191.82019	-746.61145	-800.33606	1195.45398	-796.89178	-273.30637	1114.20068	-549.44928	-753.52899	1054.97119	-608.35352	-422.28693	900.61694	-610.62860				-451.70050	961.56958	-877.00049	-464.66107	531.73212	-502.13324	-664.54364	476.66098	-803.59613	-476.95062	106.67519	-577.23877				
76	0.750	-380.78821	1614.68420	-552.49988	-683.37299	932.06256	-660.92072							-299.70508	1453.35779	-649.69269	-713.26697	1450.91321	-691.65857	-541.42242	1297.45093	-588.81189	-500.76547	1505.26123	-784.57642	-227.31161	1190.69934	-739.00677	-802.21808	1195.14734	-789.71582	-274.97733	1113.43127	-543.35590	-754.92365	1054.21741	-600.55475	-425.87085	898.80865	-603.16412				-453.86694	961.38129	-871.23761	-466.89011	529.71143	-495.59927	-668.53973	477.11273	-798.39288	-485.42361	105.03967	-553.39990				
